<svg width="10" height="14" viewBox="0 0 10 14" fill="none" xmlns="http://www.w3.org/2000/svg">
<path d="M0.852621 6.10352e-05C1.1222 6.10352e-05 1.34098 0.218848 1.34098 0.488424V1.69331L2.46148 1.46906C3.53635 1.25406 4.65056 1.35641 5.66827 1.76364L5.80111 1.81677C6.81741 2.22303 7.93581 2.29903 8.99773 2.034C9.11295 2.00513 9.23323 2.00292 9.34943 2.02751C9.46563 2.05211 9.57469 2.10287 9.66833 2.17595C9.76196 2.24902 9.83771 2.34247 9.88981 2.44921C9.94191 2.55595 9.96899 2.67316 9.96899 2.79193V7.58883C9.96895 7.79279 9.9007 7.99087 9.77511 8.15157C9.64952 8.31227 9.4738 8.42637 9.27591 8.4757L9.13682 8.51086C7.98432 8.79887 6.77037 8.7163 5.66749 8.27488C4.65001 7.86781 3.5361 7.76546 2.46148 7.9803L1.34098 8.20456V13.5117C1.34098 13.6412 1.28953 13.7654 1.19795 13.857C1.10636 13.9486 0.982143 14.0001 0.852621 14.0001C0.723099 14.0001 0.598882 13.9486 0.507296 13.857C0.41571 13.7654 0.364258 13.6412 0.364258 13.5117V0.488424C0.364258 0.218848 0.583044 6.10352e-05 0.852621 6.10352e-05Z" fill="#916CE7"/>
</svg>
