<svg width="15" height="14" viewBox="0 0 15 14" fill="none" xmlns="http://www.w3.org/2000/svg">
<path fill-rule="evenodd" clip-rule="evenodd" d="M7.5 14.0001C9.35651 14.0001 11.137 13.2626 12.4497 11.9498C13.7625 10.6371 14.5 8.85658 14.5 7.00006C14.5 5.14355 13.7625 3.36307 12.4497 2.05031C11.137 0.737559 9.35651 6.10352e-05 7.5 6.10352e-05C5.64348 6.10352e-05 3.86301 0.737559 2.55025 2.05031C1.2375 3.36307 0.5 5.14355 0.5 7.00006C0.5 8.85658 1.2375 10.6371 2.55025 11.9498C3.86301 13.2626 5.64348 14.0001 7.5 14.0001ZM4.97738 9.4874C5.01844 9.43192 5.07003 9.38508 5.1292 9.34956C5.18838 9.31404 5.25398 9.29054 5.32225 9.28039C5.39052 9.27025 5.46012 9.27367 5.52707 9.29045C5.59401 9.30723 5.657 9.33705 5.71241 9.3782C6.22147 9.75621 6.83805 9.97462 7.49916 9.97462C8.16195 9.97462 8.77685 9.75621 9.28675 9.3782C9.3987 9.29532 9.53899 9.26031 9.67676 9.28087C9.81453 9.30142 9.93848 9.37587 10.0214 9.48782C10.1042 9.59977 10.1392 9.74006 10.1187 9.87783C10.0981 10.0156 10.0237 10.1396 9.91174 10.2224C9.23131 10.7265 8.39968 11.0255 7.49916 11.0255C6.62936 11.0245 5.78315 10.7425 5.08658 10.2216C4.97478 10.1387 4.90047 10.0148 4.87999 9.8771C4.85951 9.73943 4.89454 9.59926 4.97738 9.4874ZM10.2998 5.95002C10.2998 6.52964 9.9865 7.00006 9.59924 7.00006C9.21283 7.00006 8.8995 6.52964 8.8995 5.95002C8.8995 5.3704 9.21283 4.89998 9.59924 4.89998C9.98566 4.89998 10.2998 5.3704 10.2998 5.95002ZM5.39908 7.00006C5.78549 7.00006 6.09966 6.52964 6.09966 5.95002C6.09966 5.3704 5.78633 4.89998 5.39908 4.89998C5.01266 4.89998 4.69933 5.3704 4.69933 5.95002C4.69933 6.52964 5.01266 7.00006 5.39908 7.00006Z" fill="#916CE7"/>
</svg>
