<svg width="15" height="14" viewBox="0 0 15 14" fill="none" xmlns="http://www.w3.org/2000/svg">
<path d="M8.05753 1.15627L7.65686 1.39399C7.21588 1.65438 6.9958 1.78542 6.75305 1.81565C6.51029 1.84589 6.27258 1.77366 5.79799 1.62666L5.36541 1.49394C3.69301 0.979037 2.85639 0.721164 2.35409 1.18147C1.85178 1.64178 2.01558 2.51452 2.34317 4.25999L2.42716 4.71106C2.5204 5.20664 2.56744 5.45528 2.512 5.69719C2.45656 5.93994 2.30621 6.1491 2.00466 6.56657L1.72998 6.94792C0.669932 8.41956 0.139066 9.15538 0.397779 9.7652C0.656492 10.375 1.53343 10.4557 3.28646 10.6161L3.74005 10.6581C4.23732 10.7035 4.48679 10.7253 4.6951 10.8454C4.90426 10.9647 5.04789 11.1671 5.33685 11.572L5.6006 11.9399C6.61697 13.3645 7.12516 14.076 7.7879 13.9936C8.45064 13.9096 8.82863 13.0865 9.58377 11.441L9.77949 11.0151C9.88868 10.7765 9.971 10.5985 10.0491 10.459L13.2612 13.6711C13.3597 13.7696 13.4932 13.8249 13.6325 13.8249C13.7717 13.8249 13.9053 13.7696 14.0037 13.6711C14.1022 13.5726 14.1575 13.4391 14.1575 13.2998C14.1575 13.1606 14.1022 13.027 14.0037 12.9286L10.9017 9.82652L11.1898 9.72404L11.6266 9.57117C13.3158 8.97982 14.1608 8.68415 14.3112 8.02309C14.4624 7.36119 13.8189 6.77236 12.5329 5.59471L12.2003 5.2898C11.8349 4.95549 11.6526 4.78749 11.5577 4.56406C11.4628 4.34063 11.467 4.08695 11.4737 3.57793L11.4821 3.1151C11.509 1.32595 11.5224 0.430531 10.9529 0.10462C10.3834 -0.221291 9.60897 0.238177 8.05753 1.15627Z" fill="#916CE7"/>
</svg>
